<svg width="1144" height="270" viewBox="0 0 1144 270" fill="none" xmlns="http://www.w3.org/2000/svg">
<g clip-path="url(#clip0_8035_3036)">
<path d="M319.418 4.8268H227.834L60.2104 140.344V4.8268H0.134766V266.048H60.6305V216.047L132.889 157.634L236.236 266.048H319.838L177.421 120.717L319.418 4.8268ZM442.51 4.8268H382.434V266.048H442.93L442.51 4.8268ZM801.283 4.8268H512.668V61.3702H626.938V266.515H687.433V61.3702H801.703L801.283 4.8268ZM843.294 175.859C843.294 251.094 900.849 269.319 997.054 269.319C1084.02 269.319 1143.25 255.3 1143.25 185.205C1143.25 119.316 1085.7 113.708 993.273 108.1C924.795 103.427 910.511 99.6889 910.511 79.5949C910.511 59.9683 924.795 53.8934 984.03 53.8934C1046.63 53.8934 1072.67 60.9029 1072.67 89.8756H1133.17C1133.17 25.388 1079.4 0.621094 990.752 0.621094C902.949 0.621094 850.016 18.8458 850.016 76.3238C850.016 134.736 890.766 152.961 992.853 158.101C1068.89 162.307 1082.34 166.046 1082.34 187.541C1082.34 208.103 1063.01 216.047 999.574 216.047C923.115 216.047 902.949 203.43 902.949 175.859H843.294Z" fill="#363B42"/>
</g>
<defs>
<clipPath id="clip0_8035_3036">
<rect width="1144" height="270" fill="white"/>
</clipPath>
</defs>
</svg>
